<?xml version="1.0" encoding="UTF-8"?><svg id="Livello_1" xmlns="http://www.w3.org/2000/svg" viewBox="0 0 244.92 204.11"><defs><style>.cls-1{fill:#fff;}</style></defs><path class="cls-1" d="m125.4,102v-54.5q0-1.8-1.7-1.8h-14c-.8,0-1.3-.1-1.2-1.1.1-1.2-.5-2.8.3-3.4.6-.6,2.2-.2,3.4-.2h90c1.3,0,1.5.4,1.5,1.5.2,8.1.4,16.2.7,24.3.1,3.5.2,7,.4,10.5,0,.8-.2,1.1-1,1-.5-.1-1,0-1.4,0q-2.3,0-2.8-2.3c-1.2-5.7-2.4-11.4-5-16.7-3.8-7.8-9.9-12.5-18.8-13.2-3.5-.3-7-.5-10.5-.5h-16.6c-.9,0-1.2.2-1.2,1.1v50.2c0,.4-.2,1,.6,1,4.8-.1,9.7-.2,14.3-1.8,5.4-1.9,8.3-6,9.7-11.3.7-2.7,1.1-5.5,1.2-8.3,0-.6.2-.9.8-.9h3.5c.6,0,.8.1.8.7v48.8c0,1.1-.3,1.5-1.4,1.3-.9-.1-1.8-.1-2.8,0-.7,0-.9-.2-1-.9-.3-3.5-.7-7-1.7-10.3-2.2-7.6-6.6-11.4-14.5-12.4-2.9-.4-5.8-.3-8.7-.4-.8,0-.9.3-.9,1v53.4c0,1.1.3,1.3,1.3,1.3,4.8-.1,9.7,0,14.5,0,.9,0,1.2.2,1.1,1.1-.1,1.1.4,2.7-.2,3.4-.7.7-2.3.2-3.4.2h-51c-1.1,0-1.4-.3-1.3-1.4.1-1.1-.3-2.5.2-3.1.6-.7,2-.2,3.1-.2h11.9q1.7,0,1.7-1.8c.1-18,.1-36.1.1-54.3Z"/><path class="cls-1" d="m234.5,102V1.6q0-1.5,1.6-1.6h7.8c.7,0,1.1.2,1,.9v201.5c0,1.9.2,1.7-1.7,1.7h-7.6c-.8,0-1.1-.2-1-1v-1c-.1-33.2-.1-66.7-.1-100.1Z"/><path class="cls-1" d="m22.9,192.7c-2.8-.1-5.2-.8-7.3-2.4-.6-.4-.6-.7-.1-1.2.4-.4.6-1.2,1.4-.4,2,1.8,4.3,2.5,7,2.1,1.3-.2,2.4-.8,3-2.1.5-1.3,0-2.7-1.3-3.5-1.3-.7-2.7-1-4.1-1.3-1.1-.3-2.2-.6-3.2-1.2-1.7-.9-2.5-2.2-2.5-4,0-1.9.8-3.3,2.4-4.2,2.8-1.6,7.4-1.2,10,.8.4.3.5.6.1.9-.4.3-.4,1.4-1.4.7-1.2-.9-2.6-1.4-4.1-1.6-1.1-.2-2.1,0-3,.4-1.1.4-1.8,1.2-1.8,2.4-.1,1.2.4,2.1,1.5,2.7,1.3.7,2.7.9,4.1,1.3,1,.3,2,.6,2.9,1,1.8.9,2.8,2.3,2.8,4.4-.1,2.1-1.1,3.6-3,4.5-1.2.5-2.4.6-3.4.7Z"/><path class="cls-1" d="m101.7,130.2c-.2-8.5-3.7-15.4-10.3-20.8-6.2-5.1-13.6-7.8-21.5-9.1-1.5-.2-2.9-.4-4.4-.6v-.5c.1,0,.2-.1.3-.1,6.2-1,12.2-2.9,17.7-6,5.5-3.1,10-7.2,12.5-13.2,1.7-3.9,2.1-7.9,1.8-12.1-.4-6-2.4-11.5-6.7-15.9-4.7-4.8-10.8-7.2-17.2-8.8-7.3-1.8-14.7-2.2-22.1-2.2H3.6c-1.1,0-2.7-.5-3.3.2-.6.7-.1,2.3-.2,3.4-.1.9.2,1.1,1.1,1.1h13.9c.8,0,1.1.1,1.1,1v110.5c0,.8-.1,1.1-1,1.1H3.4c-1.1,0-2.5-.5-3.1.2-.5.6-.1,2-.2,3.1-.1,1.1.2,1.4,1.3,1.4,15.1.1,30.2-.1,45.3.1,5.1.1,10.1.2,15.2-.1,7.9-.4,15.5-1.6,22.6-5.1,3.9-1.9,7.5-4.4,10.4-7.7,5-5.7,7-12.4,6.8-19.9Zm-63.6-33.6c.1-8.4.1-16.7.1-24.9v-24.8c0-.9.2-1.1,1.1-1.1,4.9.1,9.8,0,14.7,0,3,0,6,.3,9,1.2,5.3,1.5,8.3,5.2,9.8,10.3.9,3.1,1.4,6.3,1.5,9.5.2,5.2.1,10.4-1.1,15.4-1.2,4.9-3.2,9.4-7.6,12.3-2.9,1.9-6.1,2.8-9.5,3-5.7.3-11.4,0-17.1.2-1,0-.9-.5-.9-1.1Zm38.8,38.1c-.2,4.6-.8,9-2.6,13.3-2.2,5.6-6.1,9.3-12.2,10.1-.7.1-1.4.2-2.1.2h-21.1c-1,0-.7-.6-.7-1.1v-53.9c0-.9.2-1.1,1.1-1.1,5.4,0,10.7-.1,16.1.1,5.1.1,10,1.2,14,4.6,3.2,2.6,5,6.1,6.1,10,1.6,5.8,1.7,11.8,1.4,17.8Z"/><path class="cls-1" d="m64.3,174.2c-.3-.7-.7-.7-1.3-.7s-1,0-1.3.7c-1.3,3.1-2.8,6.2-4.2,9.3-1.3,2.9-2.6,5.8-3.9,8.8q2.1.3,2.8-1.4c.4-.9.9-1.7,1.2-2.6.2-.8.7-.9,1.4-.9h5.6c1.2,0,2.7-.4,3.5.2.8.5,1,2,1.5,3.1q.8,1.9,3,1.7c-2.8-6.1-5.6-12.2-8.3-18.2Zm-5.6,11.4c1.4-3.2,2.8-6.3,4.3-9.6,1.4,3.3,2.8,6.4,4.2,9.6h-8.5Z"/><path class="cls-1" d="m47,180.2c-2.8-2.8-6.4-2.5-9.9.9,0-.8,0-1.4.1-1.9,0-.9-.7-.6-1.1-.6s-1-.2-1,.6v17c0,.2-.1.5.3.6,1.2.3,1.7,0,1.7-1.2v-4.6c0-.2-.2-.6.2-.7,3.1,3.7,7.4,2.9,9.7.6,2.8-2.7,2.7-8,0-10.7Zm-4.9,10.8c-2.8,0-5.1-2.5-5.1-5.5s2.3-5.5,5-5.5c2.8-.1,4.9,2.3,4.9,5.5s-1.9,5.5-4.8,5.5Z"/></svg>